<svg xmlns="http://www.w3.org/2000/svg" height="500" width="500" viewBox="0 0 100 100"><path d="M55.249 48.3a5.486 5.598 0 1 0-5.486-5.598A5.496 5.609 0 0 0 55.25 48.3zm0-8.046a2.398 2.447 0 1 1-2.398 2.447 2.398 2.447 0 0 1 2.398-2.447zM30.28 60.664a1.544 1.576 0 0 0 1.678-.348L43.104 48.93l9.685 9.885a1.585 1.618 0 0 0 2.181 0l5.476-5.588 7.585 7.74a1.544 1.576 0 0 0 2.635-1.113V34.33a1.544 1.576 0 0 0-1.544-1.576H30.876a1.544 1.576 0 0 0-1.544 1.576v24.884a1.544 1.576 0 0 0 .947 1.45zm2.141-24.758h35.158v20.167l-5.228-5.336a2.696 2.752 0 0 0-3.808 0l-4.662 4.758-8.872-9.054a2.758 2.815 0 0 0-3.808 0l-8.78 8.96zM2.574 55.863l1.853 1.68A4.765 4.863 0 0 1 5.65 63.09l-.936 2.342A7.863 8.025 0 0 0 9.779 76.24l2.387.693a4.765 4.863 0 0 1 3.458 4.453l.124 2.532a7.843 8.004 0 0 0 7.843 7.647 7.966 8.13 0 0 0 1.348-.116l2.418-.4a4.827 4.926 0 0 1 5.013 2.48l1.183 2.227a7.853 8.014 0 0 0 11.486 2.71l2.059-1.47a4.848 4.947 0 0 1 5.568 0l2.058 1.48A7.853 8.014 0 0 0 66.22 95.83l1.194-2.227a4.786 4.884 0 0 1 5.023-2.447l2.449.441a7.853 8.014 0 0 0 9.263-7.468l.134-2.532a4.765 4.863 0 0 1 3.478-4.432l2.399-.683a7.863 8.025 0 0 0 5.146-10.819l-1.05-2.332a4.765 4.863 0 0 1 1.255-5.535l1.832-1.67a7.863 8.025 0 0 0 0-12.027l-1.852-1.68a4.765 4.863 0 0 1-1.225-5.547l1.019-2.342a7.863 8.025 0 0 0-5.074-10.807l-2.388-.694a4.765 4.863 0 0 1-3.458-4.453l-.124-2.532A7.843 8.004 0 0 0 76.4 8.397a7.987 8.151 0 0 0-1.348.115l-2.408.4a4.714 4.81 0 0 1-.813.073 4.765 4.863 0 0 1-4.2-2.553l-1.214-2.227a7.863 8.025 0 0 0-11.486-2.71L52.87 2.967a4.858 4.958 0 0 1-5.568 0l-2.059-1.48A7.863 8.025 0 0 0 33.83 4.11l-1.194 2.227a4.817 4.916 0 0 1-5.022 2.458l-2.45-.452a7.946 8.109 0 0 0-1.39-.126 7.853 8.014 0 0 0-7.842 7.594l-.134 2.532a4.765 4.863 0 0 1-3.489 4.432l-2.387.683a7.863 8.025 0 0 0-5.146 10.82l.967 2.352a4.776 4.874 0 0 1-1.256 5.535l-1.832 1.67a7.863 8.025 0 0 0 0 12.028zM4.632 46.2l1.874-1.67a7.853 8.014 0 0 0 2.058-9.118l-.937-2.343a4.776 4.874 0 0 1 3.088-6.575l2.429-.672a7.853 8.014 0 0 0 5.743-7.353l.134-2.532a4.765 4.863 0 0 1 4.755-4.61 4.817 4.916 0 0 1 .854.073l2.45.451a7.946 8.109 0 0 0 1.379.126 7.853 8.014 0 0 0 6.885-4.201l1.194-2.227a4.776 4.874 0 0 1 4.199-2.447 4.724 4.821 0 0 1 2.79.924l2.058 1.481a7.987 8.151 0 0 0 9.17 0l2.058-1.47a4.765 4.863 0 0 1 6.968 1.638l1.101 2.29a7.853 8.014 0 0 0 8.234 4.086l2.45-.43a4.765 4.863 0 0 1 5.578 4.569l.123 2.531a7.853 8.014 0 0 0 5.702 7.353l2.388.693a4.776 4.874 0 0 1 3.088 6.586l-.968 2.332a7.853 8.014 0 0 0 2.059 9.127l1.852 1.681a4.776 4.874 0 0 1 0 7.353l-1.863 1.67a7.853 8.014 0 0 0-2.058 9.117l.957 2.343a4.776 4.874 0 0 1-3.088 6.575l-2.48.588a7.853 8.014 0 0 0-5.743 7.353l-.134 2.531a4.786 4.884 0 0 1-5.609 4.538l-2.45-.441a7.904 8.067 0 0 0-8.233 4.044l-1.194 2.226a4.776 4.874 0 0 1-4.229 2.467 4.724 4.821 0 0 1-2.789-.924l-2.058-1.48a7.863 8.025 0 0 0-9.17 0l-2.06 1.47a4.765 4.863 0 0 1-6.967-1.639l-1.101-2.29a7.863 8.025 0 0 0-8.234-4.085l-2.45.43a4.776 4.874 0 0 1-5.588-4.569l-.124-2.531a7.853 8.014 0 0 0-5.703-7.353l-2.387-.693a4.776 4.874 0 0 1-3.087-6.586l.967-2.332a7.853 8.014 0 0 0-2.058-9.128l-1.853-1.68a4.776 4.874 0 0 1 0-7.353zM29.89 73.604h40.222a6.844 6.985 0 0 0 6.834-6.975V33.331a6.844 6.985 0 0 0-6.834-6.974H29.89a6.844 6.985 0 0 0-6.834 6.975v33.297a6.844 6.985 0 0 0 6.834 6.974zm-3.746-40.272a3.746 3.823 0 0 1 3.747-3.824h40.222a3.746 3.823 0 0 1 3.746 3.824v33.297a3.746 3.823 0 0 1-3.746 3.823H29.89a3.746 3.823 0 0 1-3.747-3.823z"/></svg>
