<?xml version="1.0" encoding="UTF-8"?>
<svg xmlns="http://www.w3.org/2000/svg" xmlns:xlink="http://www.w3.org/1999/xlink" width="1000pt" height="500pt" viewBox="0 0 1000 500" version="1.1">
<g id="surface1">
<path style=" stroke:none;fill-rule:nonzero;fill:rgb(18.039216%,16.862745%,45.490196%);fill-opacity:1;" d="M 415.234375 264.539062 C 415.847656 264.539062 416.335938 264.832031 416.703125 265.414062 C 417.066406 265.988281 417.25 266.78125 417.25 267.789062 C 417.25 269.65625 416.789062 271.140625 415.875 272.242188 C 413.1875 275.460938 410.582031 277.722656 408.0625 279.023438 C 405.539062 280.316406 402.503906 280.960938 398.953125 280.960938 C 396.460938 280.960938 394.160156 280.648438 392.046875 280.023438 C 389.929688 279.398438 387.363281 278.460938 384.34375 277.210938 C 381.601562 276.015625 378.960938 275.03125 376.421875 274.257812 C 373.972656 278.726562 370.300781 280.960938 365.40625 280.960938 C 362.71875 280.960938 360.570312 280.351562 358.96875 279.132812 C 357.355469 277.90625 356.546875 276.332031 356.546875 274.414062 C 356.546875 272.0625 357.671875 270.101562 359.921875 268.539062 C 362.179688 266.976562 365.1875 266.195312 368.9375 266.195312 L 369.875 266.195312 L 371.15625 245.242188 C 371.445312 240.453125 372.3125 236.5 373.75 233.382812 C 375.195312 230.257812 377.191406 227.59375 379.734375 225.382812 C 381.941406 223.457031 384.460938 222.003906 387.296875 221.023438 C 390.128906 220.035156 393.128906 219.539062 396.296875 219.539062 C 401.472656 219.539062 405.453125 220.890625 408.234375 223.585938 C 411.023438 226.273438 412.421875 229.773438 412.421875 234.085938 C 412.421875 237.015625 411.890625 239.378906 410.828125 241.179688 C 409.773438 242.984375 408.3125 243.882812 406.4375 243.882812 C 405.09375 243.882812 404.035156 243.5625 403.265625 242.914062 C 402.503906 242.269531 402.125 241.34375 402.125 240.132812 C 402.125 239.707031 402.21875 238.914062 402.40625 237.757812 C 402.695312 236.414062 402.84375 235.21875 402.84375 234.164062 C 402.84375 232.144531 402.253906 230.550781 401.078125 229.382812 C 399.898438 228.207031 398.113281 227.617188 395.71875 227.617188 C 391.488281 227.617188 388.222656 229 385.921875 231.757812 C 383.617188 234.507812 382.15625 238.835938 381.53125 244.742188 L 379.875 261.085938 C 379.632812 263.390625 379.320312 265.382812 378.9375 267.070312 C 382.007812 267.59375 385.847656 268.429688 390.453125 269.585938 C 393.140625 270.253906 395.203125 270.734375 396.640625 271.023438 C 398.085938 271.316406 399.363281 271.460938 400.46875 271.460938 C 403.25 271.460938 405.632812 270.992188 407.625 270.054688 C 409.625 269.117188 411.507812 267.617188 413.28125 265.554688 C 413.851562 264.878906 414.503906 264.539062 415.234375 264.539062 Z M 453.886719 258.492188 C 454.511719 258.492188 454.988281 258.804688 455.324219 259.429688 C 455.667969 260.054688 455.839844 260.847656 455.839844 261.804688 C 455.839844 264.109375 455.140625 265.476562 453.746094 265.914062 C 450.871094 266.925781 447.703125 267.503906 444.246094 267.648438 C 443.328125 271.679688 441.527344 274.910156 438.839844 277.335938 C 436.152344 279.753906 433.105469 280.960938 429.699219 280.960938 C 426.8125 280.960938 424.347656 280.269531 422.308594 278.882812 C 420.277344 277.488281 418.730469 275.640625 417.667969 273.335938 C 416.613281 271.023438 416.089844 268.523438 416.089844 265.835938 C 416.089844 262.191406 416.78125 258.941406 418.167969 256.085938 C 419.5625 253.234375 421.484375 251.003906 423.933594 249.398438 C 426.378906 247.785156 429.09375 246.976562 432.074219 246.976562 C 435.71875 246.976562 438.65625 248.238281 440.886719 250.757812 C 443.125 253.28125 444.4375 256.390625 444.824219 260.085938 C 447.074219 259.941406 449.761719 259.460938 452.886719 258.648438 C 453.269531 258.546875 453.605469 258.492188 453.886719 258.492188 Z M 430.277344 273.335938 C 431.808594 273.335938 433.136719 272.710938 434.261719 271.460938 C 435.394531 270.210938 436.15625 268.410156 436.542969 266.054688 C 435.050781 265.046875 433.910156 263.726562 433.121094 262.101562 C 432.328125 260.46875 431.933594 258.738281 431.933594 256.914062 C 431.933594 256.144531 432.003906 255.378906 432.152344 254.617188 L 431.792969 254.617188 C 429.863281 254.617188 428.265625 255.539062 426.996094 257.382812 C 425.722656 259.226562 425.089844 261.832031 425.089844 265.195312 C 425.089844 267.832031 425.605469 269.847656 426.636719 271.242188 C 427.667969 272.640625 428.878906 273.335938 430.277344 273.335938 Z M 486.5 264.695312 C 487.125 264.695312 487.617188 265 487.984375 265.601562 C 488.347656 266.195312 488.53125 266.945312 488.53125 267.851562 C 488.53125 268.957031 488.359375 269.820312 488.015625 270.445312 C 487.679688 271.070312 487.15625 271.625 486.4375 272.101562 C 482.3125 274.894531 479.285156 276.960938 477.359375 278.304688 L 472.75 281.398438 C 470.925781 291.335938 468.535156 299.148438 465.578125 304.835938 C 462.628906 310.523438 458.878906 313.367188 454.328125 313.367188 C 451.878906 313.367188 449.882812 312.605469 448.34375 311.085938 C 446.8125 309.574219 446.046875 307.59375 446.046875 305.148438 C 446.046875 301.742188 447.390625 298.078125 450.078125 294.164062 C 452.765625 290.257812 457.804688 285.449219 465.203125 279.742188 L 465.625 276.929688 C 464.8125 278.222656 463.742188 279.21875 462.421875 279.914062 C 461.097656 280.609375 459.789062 280.960938 458.5 280.960938 C 455.519531 280.960938 453.140625 279.882812 451.359375 277.726562 C 449.585938 275.5625 448.703125 272.726562 448.703125 269.226562 C 448.703125 265.382812 449.585938 261.75 451.359375 258.320312 C 453.140625 254.882812 455.503906 252.125 458.453125 250.039062 C 461.410156 247.945312 464.546875 246.898438 467.859375 246.898438 C 468.910156 246.898438 469.617188 247.109375 469.984375 247.523438 C 470.347656 247.929688 470.648438 248.660156 470.890625 249.710938 C 471.796875 249.523438 472.847656 249.429688 474.046875 249.429688 C 475.242188 249.429688 476.09375 249.613281 476.59375 249.976562 C 477.101562 250.332031 477.359375 251.035156 477.359375 252.085938 C 477.359375 252.671875 477.335938 253.128906 477.296875 253.460938 C 477.097656 254.953125 476.492188 258.71875 475.484375 264.757812 C 475.296875 265.914062 475.09375 267.175781 474.875 268.539062 C 474.664062 269.90625 474.441406 271.359375 474.203125 272.898438 C 477.890625 270.015625 481.4375 267.46875 484.84375 265.257812 C 485.46875 264.882812 486.019531 264.695312 486.5 264.695312 Z M 461.09375 273.695312 C 462.195312 273.695312 463.25 273.023438 464.25 271.679688 C 465.257812 270.335938 465.984375 268.414062 466.421875 265.914062 L 468.71875 253.601562 C 466.75 253.65625 464.925781 254.414062 463.25 255.882812 C 461.570312 257.34375 460.226562 259.269531 459.21875 261.664062 C 458.207031 264.0625 457.703125 266.609375 457.703125 269.304688 C 457.703125 270.785156 458 271.890625 458.59375 272.617188 C 459.195312 273.335938 460.03125 273.695312 461.09375 273.695312 Z M 455.109375 306.382812 C 456.316406 306.382812 457.675781 304.9375 459.1875 302.054688 C 460.695312 299.179688 462.148438 294.59375 463.546875 288.304688 C 459.847656 291.46875 457.179688 294.324219 455.546875 296.867188 C 453.910156 299.417969 453.09375 301.652344 453.09375 303.570312 C 453.09375 304.382812 453.25 305.054688 453.5625 305.585938 C 453.875 306.117188 454.390625 306.382812 455.109375 306.382812 Z M 496.300781 280.960938 C 493.464844 280.960938 491.054688 280.253906 489.066406 278.835938 C 487.074219 277.421875 485.574219 275.5625 484.566406 273.257812 C 483.554688 270.957031 483.050781 268.484375 483.050781 265.835938 C 483.050781 262.191406 483.730469 258.941406 485.097656 256.085938 C 486.472656 253.234375 488.332031 251.003906 490.675781 249.398438 C 493.027344 247.785156 495.667969 246.976562 498.597656 246.976562 C 501.429688 246.976562 503.851562 247.6875 505.863281 249.101562 C 507.882812 250.519531 509.398438 252.378906 510.410156 254.679688 C 511.417969 256.984375 511.925781 259.457031 511.925781 262.101562 C 511.925781 265.75 511.226562 269 509.832031 271.851562 C 508.445312 274.707031 506.558594 276.941406 504.175781 278.554688 C 501.800781 280.160156 499.175781 280.960938 496.300781 280.960938 Z M 497.097656 273.179688 C 498.722656 273.179688 500.097656 272.296875 501.222656 270.523438 C 502.355469 268.742188 502.925781 266.148438 502.925781 262.742188 C 502.925781 260.109375 502.445312 258.117188 501.488281 256.773438 C 500.527344 255.429688 499.378906 254.757812 498.035156 254.757812 C 496.304688 254.757812 494.871094 255.632812 493.738281 257.382812 C 492.613281 259.132812 492.050781 261.738281 492.050781 265.195312 C 492.050781 267.9375 492.527344 269.953125 493.488281 271.242188 C 494.445312 272.535156 495.648438 273.179688 497.097656 273.179688 Z M 594.871094 234.523438 C 594.871094 238.609375 593.425781 242.125 590.542969 245.070312 C 587.667969 248.019531 583.46875 250.144531 577.949219 251.445312 C 580.925781 252.257812 583.183594 253.59375 584.714844 255.445312 C 586.246094 257.289062 587.011719 259.410156 587.011719 261.804688 C 587.011719 265.597656 585.824219 268.890625 583.449219 271.679688 C 581.074219 274.460938 577.605469 276.609375 573.042969 278.117188 C 568.488281 279.628906 562.996094 280.382812 556.558594 280.382812 C 554.160156 280.382812 552.246094 280.3125 550.808594 280.164062 C 550.753906 281.507812 550.175781 282.511719 549.074219 283.179688 C 547.96875 283.855469 546.550781 284.195312 544.824219 284.195312 C 543.09375 284.195312 541.90625 283.808594 541.261719 283.039062 C 540.613281 282.277344 540.339844 281.152344 540.433594 279.664062 C 540.871094 272.945312 541.707031 265.90625 542.949219 258.539062 C 544.199219 251.164062 545.785156 244.046875 547.714844 237.179688 C 548.046875 235.984375 548.714844 235.144531 549.714844 234.664062 C 550.722656 234.1875 552.046875 233.945312 553.683594 233.945312 C 556.609375 233.945312 558.074219 234.765625 558.074219 236.398438 C 558.074219 237.066406 557.925781 237.832031 557.636719 238.695312 C 556.394531 242.445312 555.152344 247.523438 553.902344 253.929688 C 552.652344 260.335938 551.761719 266.441406 551.230469 272.242188 C 553.53125 272.441406 555.40625 272.539062 556.855469 272.539062 C 563.574219 272.539062 568.5 271.570312 571.636719 269.632812 C 574.78125 267.6875 576.355469 265.195312 576.355469 262.164062 C 576.355469 260.0625 575.453125 258.289062 573.652344 256.851562 C 571.859375 255.40625 568.847656 254.609375 564.621094 254.460938 C 563.660156 254.421875 562.988281 254.1875 562.605469 253.757812 C 562.21875 253.320312 562.027344 252.625 562.027344 251.664062 C 562.027344 250.269531 562.3125 249.140625 562.886719 248.273438 C 563.46875 247.410156 564.53125 246.953125 566.074219 246.898438 C 569.480469 246.804688 572.5625 246.304688 575.324219 245.398438 C 578.082031 244.484375 580.253906 243.195312 581.839844 241.539062 C 583.421875 239.882812 584.214844 237.953125 584.214844 235.742188 C 584.214844 232.960938 582.84375 230.769531 580.105469 229.164062 C 577.363281 227.550781 573.167969 226.742188 567.511719 226.742188 C 562.375 226.742188 557.40625 227.40625 552.605469 228.726562 C 547.800781 230.050781 543.71875 231.71875 540.355469 233.726562 C 538.824219 234.644531 537.53125 235.101562 536.480469 235.101562 C 535.613281 235.101562 534.953125 234.804688 534.496094 234.210938 C 534.035156 233.609375 533.808594 232.847656 533.808594 231.929688 C 533.808594 230.734375 534.058594 229.703125 534.558594 228.835938 C 535.066406 227.972656 536.28125 226.988281 538.199219 225.882812 C 542.230469 223.582031 546.957031 221.785156 552.386719 220.492188 C 557.8125 219.191406 563.355469 218.539062 569.011719 218.539062 C 577.707031 218.539062 584.191406 220.003906 588.464844 222.929688 C 592.734375 225.859375 594.871094 229.722656 594.871094 234.523438 Z M 601.273438 280.960938 C 599.117188 280.960938 597.351562 279.96875 595.976562 277.976562 C 594.609375 275.988281 593.929688 273.503906 593.929688 270.523438 C 593.929688 266.921875 594.167969 263.617188 594.648438 260.617188 C 595.125 257.617188 595.917969 254.441406 597.023438 251.085938 C 597.5 249.640625 598.171875 248.609375 599.039062 247.992188 C 599.902344 247.367188 601.273438 247.054688 603.148438 247.054688 C 604.199219 247.054688 604.929688 247.222656 605.335938 247.554688 C 605.75 247.890625 605.960938 248.394531 605.960938 249.070312 C 605.960938 249.457031 605.695312 250.753906 605.164062 252.960938 C 604.683594 254.734375 604.296875 256.335938 604.007812 257.773438 C 603.046875 262.816406 602.570312 266.175781 602.570312 267.851562 C 602.570312 268.863281 602.6875 269.570312 602.929688 269.976562 C 603.167969 270.382812 603.554688 270.585938 604.085938 270.585938 C 604.804688 270.585938 605.699219 269.867188 606.773438 268.429688 C 607.855469 266.992188 609.007812 264.8125 610.226562 261.882812 C 611.453125 258.957031 612.648438 255.359375 613.804688 251.085938 C 614.1875 249.640625 614.777344 248.609375 615.570312 247.992188 C 616.359375 247.367188 617.546875 247.054688 619.132812 247.054688 C 620.234375 247.054688 621 247.1875 621.429688 247.445312 C 621.867188 247.707031 622.085938 248.195312 622.085938 248.914062 C 622.085938 250.125 621.484375 253.414062 620.289062 258.789062 C 618.945312 264.9375 618.273438 268.726562 618.273438 270.164062 C 618.273438 271.070312 618.460938 271.78125 618.835938 272.289062 C 619.21875 272.789062 619.726562 273.039062 620.351562 273.039062 C 621.308594 273.039062 622.449219 272.453125 623.773438 271.273438 C 625.09375 270.097656 626.859375 268.191406 629.070312 265.554688 C 629.640625 264.878906 630.289062 264.539062 631.007812 264.539062 C 631.632812 264.539062 632.121094 264.832031 632.476562 265.414062 C 632.839844 265.988281 633.023438 266.78125 633.023438 267.789062 C 633.023438 269.707031 632.570312 271.191406 631.664062 272.242188 C 629.601562 274.796875 627.375 276.890625 624.992188 278.523438 C 622.617188 280.148438 619.917969 280.960938 616.898438 280.960938 C 614.59375 280.960938 612.902344 280.078125 611.820312 278.304688 C 610.746094 276.523438 610.210938 274.023438 610.210938 270.804688 C 609.386719 274.078125 608.15625 276.585938 606.523438 278.335938 C 604.898438 280.085938 603.148438 280.960938 601.273438 280.960938 Z M 636.628906 242.304688 C 634.605469 242.304688 633.089844 241.835938 632.082031 240.898438 C 631.082031 239.960938 630.582031 238.65625 630.582031 236.976562 C 630.582031 235.289062 631.238281 233.882812 632.550781 232.757812 C 633.871094 231.632812 635.519531 231.070312 637.488281 231.070312 C 639.269531 231.070312 640.710938 231.503906 641.816406 232.367188 C 642.917969 233.234375 643.472656 234.457031 643.472656 236.039062 C 643.472656 237.957031 642.847656 239.484375 641.597656 240.617188 C 640.347656 241.742188 638.691406 242.304688 636.628906 242.304688 Z M 636.050781 280.960938 C 632.925781 280.960938 630.652344 279.859375 629.238281 277.648438 C 627.832031 275.441406 627.128906 272.515625 627.128906 268.867188 C 627.128906 266.710938 627.402344 263.941406 627.957031 260.554688 C 628.507812 257.171875 629.214844 254.015625 630.082031 251.085938 C 630.507812 249.546875 631.082031 248.488281 631.800781 247.914062 C 632.519531 247.34375 633.667969 247.054688 635.253906 247.054688 C 637.699219 247.054688 638.925781 247.867188 638.925781 249.492188 C 638.925781 250.703125 638.472656 253.488281 637.566406 257.851562 C 636.410156 263.132812 635.832031 266.707031 635.832031 268.570312 C 635.832031 270.019531 636.023438 271.128906 636.410156 271.898438 C 636.792969 272.660156 637.441406 273.039062 638.347656 273.039062 C 639.210938 273.039062 640.289062 272.441406 641.582031 271.242188 C 642.882812 270.046875 644.617188 268.148438 646.785156 265.554688 C 647.355469 264.878906 648.003906 264.539062 648.722656 264.539062 C 649.347656 264.539062 649.835938 264.832031 650.191406 265.414062 C 650.554688 265.988281 650.738281 266.78125 650.738281 267.789062 C 650.738281 269.707031 650.277344 271.191406 649.363281 272.242188 C 644.613281 278.054688 640.175781 280.960938 636.050781 280.960938 Z M 672.203125 264.539062 C 672.828125 264.539062 673.316406 264.832031 673.671875 265.414062 C 674.035156 265.988281 674.21875 266.78125 674.21875 267.789062 C 674.21875 269.707031 673.757812 271.191406 672.84375 272.242188 C 670.78125 274.796875 668.535156 276.890625 666.109375 278.523438 C 663.691406 280.148438 660.945312 280.960938 657.875 280.960938 C 653.644531 280.960938 650.507812 279.046875 648.46875 275.210938 C 646.425781 271.367188 645.40625 266.398438 645.40625 260.304688 C 645.40625 254.441406 646.160156 247.769531 647.671875 240.289062 C 649.191406 232.800781 651.425781 226.367188 654.375 220.992188 C 657.332031 215.609375 660.847656 212.914062 664.921875 212.914062 C 667.222656 212.914062 669.035156 213.988281 670.359375 216.132812 C 671.679688 218.269531 672.34375 221.328125 672.34375 225.304688 C 672.34375 231.015625 670.757812 237.640625 667.59375 245.179688 C 664.425781 252.710938 660.128906 260.175781 654.703125 267.570312 C 655.035156 269.539062 655.585938 270.945312 656.359375 271.789062 C 657.128906 272.625 658.132812 273.039062 659.375 273.039062 C 661.34375 273.039062 663.070312 272.476562 664.5625 271.351562 C 666.050781 270.226562 667.945312 268.296875 670.25 265.554688 C 670.820312 264.878906 671.472656 264.539062 672.203125 264.539062 Z M 663.34375 220.054688 C 662.238281 220.054688 660.988281 222.050781 659.59375 226.039062 C 658.207031 230.019531 656.984375 234.960938 655.921875 240.867188 C 654.867188 246.765625 654.296875 252.425781 654.203125 257.851562 C 657.609375 252.238281 660.316406 246.613281 662.328125 240.976562 C 664.347656 235.332031 665.359375 230.179688 665.359375 225.523438 C 665.359375 221.878906 664.6875 220.054688 663.34375 220.054688 Z M 708.5625 264.539062 C 709.175781 264.539062 709.664062 264.832031 710.03125 265.414062 C 710.394531 265.988281 710.578125 266.78125 710.578125 267.789062 C 710.578125 269.707031 710.117188 271.191406 709.203125 272.242188 C 707.234375 274.648438 705.070312 276.707031 702.71875 278.414062 C 700.363281 280.113281 698.035156 280.960938 695.734375 280.960938 C 692.085938 280.960938 689.304688 278.828125 687.390625 274.554688 C 685.367188 277.097656 683.601562 278.800781 682.09375 279.664062 C 680.582031 280.53125 678.816406 280.960938 676.796875 280.960938 C 673.867188 280.960938 671.457031 279.875 669.5625 277.695312 C 667.664062 275.507812 666.71875 272.660156 666.71875 269.148438 C 666.71875 265.316406 667.535156 261.753906 669.171875 258.460938 C 670.804688 255.171875 673.050781 252.484375 675.90625 250.398438 C 678.757812 248.304688 681.960938 247.070312 685.515625 246.695312 C 686.429688 237.382812 688.171875 229.425781 690.734375 222.820312 C 693.304688 216.21875 696.675781 212.914062 700.84375 212.914062 C 702.914062 212.914062 704.632812 213.851562 706 215.726562 C 707.363281 217.601562 708.046875 220.4375 708.046875 224.226562 C 708.046875 229.601562 706.722656 235.890625 704.078125 243.085938 C 701.441406 250.285156 697.914062 257.675781 693.5 265.257812 C 693.695312 268.050781 694.117188 270.046875 694.765625 271.242188 C 695.410156 272.441406 696.238281 273.039062 697.25 273.039062 C 698.539062 273.039062 699.859375 272.46875 701.203125 271.320312 C 702.554688 270.164062 704.359375 268.242188 706.609375 265.554688 C 707.179688 264.878906 707.832031 264.539062 708.5625 264.539062 Z M 700.0625 219.976562 C 699.144531 219.976562 698.226562 221.597656 697.3125 224.835938 C 696.40625 228.078125 695.628906 232.316406 694.984375 237.554688 C 694.335938 242.785156 693.867188 248.253906 693.578125 253.960938 C 698.953125 242.253906 701.640625 232.847656 701.640625 225.742188 C 701.640625 223.921875 701.484375 222.503906 701.171875 221.492188 C 700.859375 220.484375 700.488281 219.976562 700.0625 219.976562 Z M 679.328125 273.695312 C 680.234375 273.695312 681.140625 273.328125 682.046875 272.585938 C 682.960938 271.835938 684.117188 270.453125 685.515625 268.429688 C 685.035156 265.835938 684.796875 262.9375 684.796875 259.726562 C 684.796875 258.570312 684.84375 256.695312 684.9375 254.101562 C 682.300781 254.925781 680.101562 256.691406 678.34375 259.398438 C 676.59375 262.109375 675.71875 265.117188 675.71875 268.429688 C 675.71875 271.941406 676.921875 273.695312 679.328125 273.695312 Z M 736.84375 264.539062 C 737.46875 264.539062 737.957031 264.832031 738.3125 265.414062 C 738.675781 265.988281 738.859375 266.78125 738.859375 267.789062 C 738.859375 269.707031 738.40625 271.191406 737.5 272.242188 C 735.71875 274.410156 733.207031 276.40625 729.96875 278.226562 C 726.726562 280.050781 723.257812 280.960938 719.5625 280.960938 C 714.53125 280.960938 710.617188 279.597656 707.828125 276.867188 C 705.046875 274.128906 703.65625 270.382812 703.65625 265.632812 C 703.65625 262.320312 704.347656 259.238281 705.734375 256.382812 C 707.128906 253.519531 709.0625 251.25 711.53125 249.570312 C 714.007812 247.894531 716.804688 247.054688 719.921875 247.054688 C 722.710938 247.054688 724.945312 247.882812 726.625 249.539062 C 728.300781 251.195312 729.140625 253.4375 729.140625 256.257812 C 729.140625 259.570312 727.953125 262.421875 725.578125 264.804688 C 723.203125 267.179688 719.179688 269.0625 713.515625 270.445312 C 714.722656 272.65625 717.003906 273.757812 720.359375 273.757812 C 722.515625 273.757812 724.972656 273.003906 727.734375 271.492188 C 730.492188 269.984375 732.882812 268.003906 734.90625 265.554688 C 735.476562 264.878906 736.125 264.539062 736.84375 264.539062 Z M 718.703125 254.101562 C 716.929688 254.101562 715.429688 255.140625 714.203125 257.210938 C 712.984375 259.273438 712.375 261.769531 712.375 264.695312 L 712.375 264.835938 C 715.207031 264.160156 717.4375 263.148438 719.0625 261.804688 C 720.695312 260.460938 721.515625 258.90625 721.515625 257.132812 C 721.515625 256.21875 721.257812 255.484375 720.75 254.929688 C 720.25 254.378906 719.566406 254.101562 718.703125 254.101562 Z M 762.125 256.914062 C 763.175781 256.914062 764.070312 257.289062 764.8125 258.039062 C 765.5625 258.78125 765.9375 259.703125 765.9375 260.804688 C 765.9375 261.429688 765.789062 262.101562 765.5 262.820312 C 764.738281 264.59375 763.660156 266.082031 762.265625 267.289062 C 760.867188 268.488281 759.332031 269.085938 757.65625 269.085938 C 756.3125 269.085938 755.171875 268.609375 754.234375 267.648438 C 753.296875 266.679688 752.828125 265.382812 752.828125 263.757812 C 752.828125 262.84375 752.878906 261.859375 752.984375 260.804688 C 753.078125 260.035156 753.125 259.503906 753.125 259.210938 C 753.125 258.835938 753.039062 258.554688 752.875 258.367188 C 752.707031 258.171875 752.503906 258.070312 752.265625 258.070312 C 751.585938 258.070312 750.671875 258.875 749.515625 260.476562 C 748.367188 262.082031 747.21875 264.207031 746.0625 266.851562 C 744.914062 269.488281 743.984375 272.269531 743.265625 275.195312 C 742.734375 277.507812 742.128906 279.050781 741.453125 279.820312 C 740.785156 280.582031 739.679688 280.960938 738.140625 280.960938 C 736.316406 280.960938 735.03125 280.003906 734.28125 278.085938 C 733.539062 276.160156 733.171875 273.085938 733.171875 268.867188 C 733.171875 262.628906 734.0625 256.703125 735.84375 251.085938 C 736.269531 249.691406 736.972656 248.671875 737.953125 248.023438 C 738.941406 247.378906 740.328125 247.054688 742.109375 247.054688 C 743.066406 247.054688 743.738281 247.175781 744.125 247.414062 C 744.507812 247.65625 744.703125 248.109375 744.703125 248.773438 C 744.703125 249.546875 744.34375 251.273438 743.625 253.960938 C 743.132812 255.878906 742.742188 257.5625 742.453125 259.007812 C 742.171875 260.445312 741.9375 262.222656 741.75 264.335938 C 743.332031 260.203125 745.109375 256.84375 747.078125 254.257812 C 749.046875 251.664062 750.960938 249.816406 752.828125 248.710938 C 754.703125 247.609375 756.410156 247.054688 757.953125 247.054688 C 759.335938 247.054688 760.398438 247.453125 761.140625 248.242188 C 761.890625 249.035156 762.265625 250.195312 762.265625 251.726562 C 762.265625 252.644531 762 254.375 761.46875 256.914062 Z M 359.5 186.785156 "/>
<path style=" stroke:none;fill-rule:nonzero;fill:rgb(93.72549%,25.098039%,26.666667%);fill-opacity:1;" d="M 289.890625 248.300781 C 292.109375 248.300781 294.109375 246.9375 294.957031 244.84375 C 295.808594 242.753906 295.335938 240.34375 293.769531 238.742188 C 292.199219 237.144531 289.839844 236.664062 287.789062 237.53125 C 285.742188 238.398438 284.402344 240.4375 284.402344 242.703125 C 284.410156 245.792969 286.863281 248.296875 289.890625 248.300781 Z M 289.890625 240.253906 C 292.027344 240.253906 293.097656 242.890625 291.585938 244.429688 C 290.074219 245.972656 287.492188 244.882812 287.492188 242.699219 C 287.492188 241.347656 288.566406 240.253906 289.890625 240.253906 Z M 264.921875 260.664062 C 265.496094 260.902344 266.160156 260.765625 266.597656 260.316406 L 277.746094 248.929688 L 287.429688 258.816406 C 288.042969 259.40625 289 259.40625 289.609375 258.816406 L 295.085938 253.226562 L 302.671875 260.96875 C 303.644531 261.957031 305.304688 261.257812 305.304688 259.855469 L 305.304688 234.328125 C 305.304688 233.460938 304.617188 232.753906 303.761719 232.753906 L 265.515625 232.753906 C 264.664062 232.753906 263.972656 233.460938 263.972656 234.328125 L 263.972656 259.214844 C 263.972656 259.847656 264.347656 260.417969 264.917969 260.664062 Z M 267.0625 235.90625 L 302.21875 235.90625 L 302.21875 256.074219 L 296.992188 250.738281 C 295.9375 249.664062 294.234375 249.664062 293.183594 250.738281 L 288.523438 255.496094 L 279.648438 246.441406 C 278.582031 245.402344 276.90625 245.402344 275.839844 246.441406 L 267.0625 255.402344 Z M 237.214844 255.863281 L 239.066406 257.542969 C 240.601562 258.929688 241.09375 261.164062 240.289062 263.089844 L 239.355469 265.433594 C 238.488281 267.542969 238.546875 269.929688 239.515625 271.996094 C 240.480469 274.058594 242.265625 275.601562 244.417969 276.238281 L 246.804688 276.933594 C 248.777344 277.503906 250.167969 279.296875 250.265625 281.386719 L 250.386719 283.917969 C 250.574219 288.199219 254.03125 291.570312 258.230469 291.566406 C 258.683594 291.566406 259.132812 291.527344 259.578125 291.449219 L 261.996094 291.050781 C 264.015625 290.707031 266.023438 291.703125 267.011719 293.527344 L 268.195312 295.757812 C 269.265625 297.78125 271.136719 299.242188 273.335938 299.761719 C 275.535156 300.277344 277.84375 299.808594 279.679688 298.464844 L 281.738281 296.996094 C 283.410156 295.800781 285.636719 295.800781 287.304688 296.996094 L 289.363281 298.476562 C 291.191406 299.824219 293.5 300.308594 295.699219 299.800781 C 297.898438 299.296875 299.777344 297.847656 300.859375 295.828125 L 302.054688 293.601562 C 303.042969 291.777344 305.0625 290.792969 307.078125 291.15625 L 309.527344 291.597656 C 311.75 292.015625 314.042969 291.433594 315.816406 290.003906 C 317.589844 288.574219 318.671875 286.433594 318.789062 284.128906 L 318.921875 281.597656 C 319.03125 279.511719 320.429688 277.726562 322.402344 277.164062 L 324.800781 276.480469 C 326.972656 275.863281 328.777344 274.324219 329.761719 272.257812 C 330.746094 270.1875 330.8125 267.785156 329.945312 265.664062 L 328.898438 263.332031 C 328.105469 261.402344 328.609375 259.175781 330.152344 257.796875 L 331.984375 256.125 C 333.671875 254.601562 334.640625 252.414062 334.640625 250.113281 C 334.640625 247.8125 333.671875 245.621094 331.984375 244.097656 L 330.132812 242.417969 C 328.597656 241.03125 328.101562 238.796875 328.90625 236.871094 L 329.925781 234.53125 C 330.792969 232.417969 330.730469 230.03125 329.761719 227.964844 C 328.792969 225.902344 327.007812 224.359375 324.851562 223.722656 L 322.464844 223.027344 C 320.492188 222.457031 319.101562 220.664062 319.003906 218.574219 L 318.882812 216.042969 C 318.695312 211.765625 315.238281 208.394531 311.039062 208.398438 C 310.589844 208.394531 310.136719 208.433594 309.691406 208.511719 L 307.285156 208.910156 C 307.015625 208.960938 306.746094 208.984375 306.472656 208.984375 C 304.71875 208.988281 303.105469 208.007812 302.273438 206.433594 L 301.058594 204.203125 C 299.984375 202.179688 298.109375 200.722656 295.914062 200.207031 C 293.714844 199.6875 291.40625 200.15625 289.570312 201.496094 L 287.511719 202.96875 C 285.839844 204.160156 283.613281 204.160156 281.941406 202.96875 L 279.882812 201.488281 C 278.0625 200.167969 275.78125 199.699219 273.605469 200.203125 C 271.425781 200.703125 269.5625 202.121094 268.46875 204.109375 L 267.277344 206.335938 C 266.285156 208.160156 264.269531 209.148438 262.253906 208.796875 L 259.804688 208.34375 C 259.347656 208.257812 258.878906 208.21875 258.414062 208.21875 C 254.238281 208.21875 250.792969 211.554688 250.574219 215.8125 L 250.4375 218.34375 C 250.332031 220.433594 248.925781 222.21875 246.949219 222.773438 L 244.5625 223.457031 C 242.390625 224.074219 240.585938 225.613281 239.601562 227.683594 C 238.617188 229.753906 238.546875 232.15625 239.417969 234.277344 L 240.382812 236.628906 C 241.171875 238.558594 240.664062 240.785156 239.128906 242.164062 L 237.296875 243.835938 C 235.605469 245.359375 234.640625 247.546875 234.640625 249.847656 C 234.640625 252.148438 235.605469 254.339844 237.296875 255.863281 Z M 239.273438 246.199219 L 241.148438 244.53125 C 243.679688 242.257812 244.507812 238.585938 243.203125 235.410156 L 242.269531 233.070312 C 241.15625 230.375 242.601562 227.296875 245.355469 226.492188 L 247.785156 225.820312 C 251.054688 224.894531 253.371094 221.929688 253.527344 218.46875 L 253.660156 215.9375 C 253.792969 213.355469 255.882812 211.328125 258.417969 211.328125 C 258.703125 211.324219 258.988281 211.351562 259.269531 211.398438 L 261.71875 211.851562 C 262.175781 211.933594 262.636719 211.976562 263.101562 211.976562 C 265.976562 211.96875 268.617188 210.355469 269.984375 207.777344 L 271.179688 205.550781 C 272.039062 204.015625 273.648438 203.082031 275.378906 203.101562 C 276.378906 203.101562 277.355469 203.421875 278.167969 204.027344 L 280.226562 205.507812 C 282.976562 207.476562 286.644531 207.476562 289.394531 205.507812 L 291.453125 204.035156 C 293.785156 202.332031 297.054688 203.097656 298.421875 205.675781 L 299.523438 207.964844 C 301.125 210.988281 304.4375 212.632812 307.757812 212.050781 L 310.207031 211.621094 C 313.035156 211.117188 315.652344 213.261719 315.785156 216.191406 L 315.90625 218.722656 C 316.058594 222.167969 318.355469 225.132812 321.609375 226.074219 L 323.996094 226.765625 C 326.757812 227.570312 328.203125 230.65625 327.085938 233.351562 L 326.117188 235.683594 C 324.808594 238.863281 325.636719 242.539062 328.175781 244.8125 L 330.027344 246.492188 C 332.214844 248.4375 332.214844 251.902344 330.027344 253.847656 L 328.164062 255.515625 C 325.632812 257.789062 324.804688 261.457031 326.109375 264.632812 L 327.066406 266.976562 C 328.175781 269.667969 326.730469 272.746094 323.976562 273.550781 L 321.496094 274.140625 C 318.226562 275.066406 315.910156 278.03125 315.753906 281.492188 L 315.621094 284.023438 C 315.460938 286.945312 312.835938 289.070312 310.011719 288.5625 L 307.5625 288.121094 C 304.253906 287.546875 300.953125 289.167969 299.328125 292.164062 L 298.132812 294.390625 C 297.273438 295.9375 295.648438 296.886719 293.90625 296.855469 C 292.902344 296.859375 291.925781 296.535156 291.117188 295.933594 L 289.058594 294.453125 C 286.316406 292.445312 282.628906 292.445312 279.886719 294.453125 L 277.828125 295.921875 C 275.496094 297.628906 272.226562 296.859375 270.859375 294.285156 L 269.757812 291.992188 C 268.15625 288.972656 264.84375 287.332031 261.527344 287.910156 L 259.074219 288.339844 C 256.246094 288.839844 253.625 286.699219 253.488281 283.769531 L 253.363281 281.238281 C 253.214844 277.789062 250.914062 274.828125 247.660156 273.886719 L 245.273438 273.191406 C 242.515625 272.390625 241.070312 269.304688 242.1875 266.605469 L 243.152344 264.273438 C 244.460938 261.097656 243.632812 257.421875 241.09375 255.148438 L 239.242188 253.46875 C 237.054688 251.523438 237.054688 248.058594 239.242188 246.113281 Z M 264.53125 273.605469 L 304.753906 273.605469 C 308.523438 273.597656 311.582031 270.480469 311.585938 266.628906 L 311.585938 233.332031 C 311.582031 229.480469 308.523438 226.363281 304.753906 226.355469 L 264.53125 226.355469 C 260.757812 226.363281 257.703125 229.480469 257.695312 233.332031 L 257.695312 266.628906 C 257.703125 270.476562 260.757812 273.597656 264.53125 273.601562 Z M 260.785156 233.332031 C 260.785156 231.21875 262.460938 229.507812 264.53125 229.507812 L 304.753906 229.507812 C 306.824219 229.507812 308.5 231.21875 308.5 233.332031 L 308.5 266.628906 C 308.5 268.742188 306.824219 270.453125 304.753906 270.453125 L 264.53125 270.453125 C 262.460938 270.453125 260.785156 268.742188 260.785156 266.628906 Z M 260.785156 233.332031 "/>
</g>
</svg>
